<?xml version="1.0" encoding="utf-8"?>
<!-- Generator: Adobe Illustrator 26.2.1, SVG Export Plug-In . SVG Version: 6.00 Build 0)  -->
<svg version="1.1" id="Capa_1" xmlns="http://www.w3.org/2000/svg" xmlns:xlink="http://www.w3.org/1999/xlink" x="0px" y="0px"
	 viewBox="0 0 77.2 21.8" style="enable-background:new 0 0 77.2 21.8;" xml:space="preserve">
<style type="text/css">
	.st0{fill:#009FE3;}
	.st1{fill:#FFFFFF;}
</style>
<g>
	<path class="st0" d="M66.2,21.8H10.9C4.9,21.8,0,16.9,0,10.9v0C0,4.9,4.9,0,10.9,0l55.3,0c6,0,10.9,4.9,10.9,10.9v0
		C77.2,16.9,72.3,21.8,66.2,21.8z"/>
	<g>
		<path class="st1" d="M17.8,13.9c-0.3,0.2-1,0.3-1.9,0.3c-2,0-3.5-1.3-3.5-3.6c0-2.2,1.5-3.8,3.7-3.8c0.9,0,1.5,0.2,1.7,0.3L17.6,8
			c-0.4-0.2-0.8-0.3-1.4-0.3c-1.7,0-2.8,1.1-2.8,2.9c0,1.8,1,2.9,2.7,2.9c0.6,0,1.1-0.1,1.5-0.3L17.8,13.9z"/>
		<path class="st1" d="M19.3,11.8c0,1.3,0.8,1.8,1.8,1.8c0.7,0,1.1-0.1,1.4-0.3l0.2,0.7c-0.3,0.1-0.9,0.3-1.7,0.3
			c-1.6,0-2.5-1-2.5-2.6c0-1.5,0.9-2.8,2.4-2.8c1.7,0,2.1,1.5,2.1,2.4c0,0.2,0,0.3,0,0.4H19.3z M22.1,11.1c0-0.6-0.2-1.5-1.3-1.5
			c-0.9,0-1.4,0.9-1.4,1.5H22.1z"/>
		<path class="st1" d="M24.1,10.6c0-0.6,0-1.1,0-1.6h0.8l0,1h0c0.2-0.7,0.8-1.1,1.4-1.1c0.1,0,0.2,0,0.3,0v0.9c-0.1,0-0.2,0-0.3,0
			c-0.7,0-1.1,0.5-1.3,1.2c0,0.1,0,0.3,0,0.4v2.7h-0.9V10.6z"/>
		<path class="st1" d="M29,7.6V9h1.3v0.7H29v2.8c0,0.6,0.2,1,0.7,1c0.2,0,0.4,0,0.5-0.1l0,0.7c-0.2,0.1-0.5,0.1-0.8,0.1
			c-0.4,0-0.8-0.1-1-0.4c-0.3-0.3-0.4-0.7-0.4-1.3V9.7h-0.8V9h0.8V7.8L29,7.6z"/>
		<path class="st1" d="M32.4,7.6c0,0.3-0.2,0.6-0.6,0.6c-0.3,0-0.6-0.3-0.6-0.6c0-0.3,0.2-0.6,0.6-0.6C32.2,7,32.4,7.3,32.4,7.6z
			 M31.4,14.2V9h0.9v5.1H31.4z"/>
		<path class="st1" d="M33.9,14.2V9.7h-0.7V9h0.7V8.8c0-1.4,0.8-2.2,2.2-2.2c0.5,0,1,0.1,1.3,0.3l-0.3,0.7c-0.2-0.2-0.6-0.3-1.1-0.3
			c-1,0-1.3,0.7-1.3,1.5V9h3v5.1h-0.9V9.7h-2.1v4.4H33.9z"/>
		<path class="st1" d="M43,14c-0.2,0.1-0.8,0.3-1.5,0.3c-1.5,0-2.6-1-2.6-2.6c0-1.6,1.1-2.7,2.8-2.7c0.6,0,1,0.1,1.3,0.3l-0.2,0.7
			c-0.2-0.1-0.6-0.2-1.1-0.2c-1.2,0-1.8,0.9-1.8,1.9c0,1.2,0.8,1.9,1.8,1.9c0.5,0,0.9-0.1,1.1-0.3L43,14z"/>
		<path class="st1" d="M47,14.2l-0.1-0.6h0c-0.3,0.4-0.8,0.8-1.6,0.8c-1,0-1.6-0.7-1.6-1.5c0-1.2,1.1-1.9,3.1-1.9v-0.1
			c0-0.4-0.1-1.2-1.2-1.2c-0.5,0-1,0.1-1.3,0.4l-0.2-0.6c0.4-0.3,1-0.5,1.7-0.5c1.6,0,2,1.1,2,2.1v1.9c0,0.4,0,0.9,0.1,1.2H47z
			 M46.8,11.5c-1,0-2.2,0.2-2.2,1.2c0,0.6,0.4,0.9,0.9,0.9c0.7,0,1.1-0.4,1.2-0.9c0-0.1,0.1-0.2,0.1-0.3V11.5z"/>
		<path class="st1" d="M52.9,14c-0.2,0.1-0.8,0.3-1.5,0.3c-1.5,0-2.6-1-2.6-2.6c0-1.6,1.1-2.7,2.8-2.7c0.6,0,1,0.1,1.3,0.3l-0.2,0.7
			c-0.2-0.1-0.6-0.2-1.1-0.2c-1.2,0-1.8,0.9-1.8,1.9c0,1.2,0.8,1.9,1.8,1.9c0.5,0,0.9-0.1,1.1-0.3L52.9,14z"/>
		<path class="st1" d="M55,7.6c0,0.3-0.2,0.6-0.6,0.6c-0.3,0-0.6-0.3-0.6-0.6c0-0.3,0.2-0.6,0.6-0.6C54.8,7,55,7.3,55,7.6z M54,14.2
			V9h0.9v5.1H54z"/>
		<path class="st1" d="M61.1,11.6c0,1.9-1.3,2.7-2.6,2.7c-1.4,0-2.5-1-2.5-2.6c0-1.7,1.1-2.7,2.5-2.7C60.1,8.9,61.1,10,61.1,11.6z
			 M57,11.6c0,1.1,0.6,2,1.6,2c0.9,0,1.6-0.8,1.6-2c0-0.9-0.4-2-1.5-2C57.5,9.6,57,10.6,57,11.6z"/>
		<path class="st1" d="M62.3,10.4c0-0.5,0-1,0-1.4h0.8l0.1,0.8h0c0.3-0.5,0.8-1,1.7-1c0.7,0,1.8,0.4,1.8,2.2v3.1h-0.9v-3
			c0-0.8-0.3-1.5-1.2-1.5c-0.6,0-1.1,0.4-1.3,1c0,0.1-0.1,0.3-0.1,0.4v3.1h-0.9V10.4z"/>
	</g>
</g>
</svg>
