<?xml version="1.0" encoding="utf-8"?>
<!-- Generator: Adobe Illustrator 26.2.1, SVG Export Plug-In . SVG Version: 6.00 Build 0)  -->
<svg version="1.1" id="Capa_1" xmlns="http://www.w3.org/2000/svg" xmlns:xlink="http://www.w3.org/1999/xlink" x="0px" y="0px"
	 viewBox="0 0 77.2 21.8" style="enable-background:new 0 0 77.2 21.8;" xml:space="preserve">
<style type="text/css">
	.st0{fill:#009FE3;}
	.st1{fill:#FFFFFF;}
</style>
<g>
	<path class="st0" d="M66.2,21.8H10.9C4.9,21.8,0,16.9,0,10.9v0C0,4.9,4.9,0,10.9,0l55.3,0c6,0,10.9,4.9,10.9,10.9v0
		C77.2,16.9,72.3,21.8,66.2,21.8z"/>
	<g>
		<path class="st1" d="M31.1,7.1C31.6,7,32.2,7,32.9,7c1,0,1.6,0.2,2.1,0.6c0.4,0.3,0.6,0.8,0.6,1.4c0,0.9-0.6,1.6-1.3,1.8v0
			c0.6,0.2,0.9,0.7,1,1.4c0.2,1,0.4,1.7,0.6,2h-1c-0.1-0.2-0.3-0.8-0.5-1.7c-0.2-1-0.6-1.4-1.4-1.4H32v3.1h-0.9V7.1z M32,10.4H33
			c1,0,1.6-0.5,1.6-1.4c0-0.9-0.7-1.3-1.6-1.3c-0.4,0-0.8,0-0.9,0.1V10.4z"/>
		<path class="st1" d="M41.1,12.8c0,0.5,0,1,0,1.4h-0.8l-0.1-0.8h0c-0.2,0.4-0.8,1-1.7,1c-0.8,0-1.8-0.4-1.8-2.2V9h0.9v2.8
			c0,1,0.3,1.6,1.1,1.6c0.6,0,1.1-0.4,1.2-0.8c0.1-0.1,0.1-0.3,0.1-0.5V9h0.9V12.8z"/>
		<path class="st1" d="M43.7,7.6V9h1.3v0.7h-1.3v2.8c0,0.6,0.2,1,0.7,1c0.2,0,0.4,0,0.5-0.1l0,0.7c-0.2,0.1-0.5,0.1-0.8,0.1
			c-0.4,0-0.8-0.1-1-0.4c-0.3-0.3-0.4-0.7-0.4-1.3V9.7H42V9h0.8V7.8L43.7,7.6z"/>
	</g>
</g>
</svg>
