<?xml version="1.0" encoding="utf-8"?>
<!-- Generator: Adobe Illustrator 26.2.1, SVG Export Plug-In . SVG Version: 6.00 Build 0)  -->
<svg version="1.1" id="Capa_1" xmlns="http://www.w3.org/2000/svg" xmlns:xlink="http://www.w3.org/1999/xlink" x="0px" y="0px"
	 viewBox="0 0 86.5 21.8" style="enable-background:new 0 0 86.5 21.8;" xml:space="preserve">
<style type="text/css">
	.st0{fill:#6DB52D;}
	.st1{fill:#FFFFFF;}
</style>
<g>
	<path class="st0" d="M75.6,21.8H10.9C4.9,21.8,0,16.9,0,10.9v0C0,4.9,4.9,0,10.9,0l64.7,0c6,0,10.9,4.9,10.9,10.9v0
		C86.5,16.9,81.6,21.8,75.6,21.8z"/>
	<g>
		<path class="st1" d="M14.6,14.2L12.8,7h1l0.8,3.6c0.2,0.9,0.4,1.8,0.5,2.5h0c0.1-0.7,0.3-1.6,0.6-2.5l1-3.6h1l0.9,3.6
			c0.2,0.8,0.4,1.7,0.5,2.4h0c0.1-0.8,0.3-1.6,0.6-2.5L20.6,7h0.9l-2,7.1h-1l-0.9-3.7c-0.2-0.9-0.4-1.6-0.5-2.3h0
			c-0.1,0.7-0.3,1.4-0.6,2.3l-1,3.7H14.6z"/>
		<path class="st1" d="M22.3,6.6h0.9v3.2h0c0.1-0.3,0.4-0.5,0.7-0.7c0.3-0.2,0.6-0.3,1-0.3c0.7,0,1.8,0.4,1.8,2.2v3.1h-0.9v-2.9
			c0-0.8-0.3-1.5-1.2-1.5c-0.6,0-1.1,0.4-1.3,0.9c-0.1,0.1-0.1,0.3-0.1,0.4v3.1h-0.9V6.6z"/>
		<path class="st1" d="M31.1,14.2L31,13.5h0c-0.3,0.4-0.8,0.8-1.6,0.8c-1,0-1.6-0.7-1.6-1.5c0-1.2,1.1-1.9,3.1-1.9v-0.1
			c0-0.4-0.1-1.2-1.2-1.2c-0.5,0-1,0.1-1.3,0.4l-0.2-0.6c0.4-0.3,1-0.5,1.7-0.5c1.6,0,2,1.1,2,2.1v1.9c0,0.4,0,0.9,0.1,1.2H31.1z
			 M30.9,11.5c-1,0-2.2,0.2-2.2,1.2c0,0.6,0.4,0.9,0.9,0.9c0.7,0,1.1-0.4,1.2-0.9c0-0.1,0.1-0.2,0.1-0.3V11.5z"/>
		<path class="st1" d="M34.4,7.6V9h1.3v0.7h-1.3v2.8c0,0.6,0.2,1,0.7,1c0.2,0,0.4,0,0.5-0.1l0,0.7c-0.2,0.1-0.5,0.1-0.8,0.1
			c-0.4,0-0.8-0.1-1-0.4c-0.3-0.3-0.4-0.7-0.4-1.3V9.7h-0.8V9h0.8V7.8L34.4,7.6z"/>
		<path class="st1" d="M36.7,13.2c0.3,0.2,0.8,0.4,1.2,0.4c0.7,0,1-0.3,1-0.8c0-0.4-0.3-0.7-1-0.9c-0.9-0.3-1.4-0.8-1.4-1.5
			c0-0.8,0.7-1.5,1.8-1.5c0.5,0,1,0.1,1.3,0.3l-0.2,0.7c-0.2-0.1-0.6-0.3-1-0.3c-0.6,0-0.9,0.3-0.9,0.7c0,0.4,0.3,0.6,1,0.9
			c0.9,0.3,1.3,0.8,1.3,1.5c0,0.9-0.7,1.5-1.9,1.5c-0.6,0-1.1-0.1-1.4-0.4L36.7,13.2z"/>
		<path class="st1" d="M43.8,14.2l-0.1-0.6h0c-0.3,0.4-0.8,0.8-1.6,0.8c-1,0-1.6-0.7-1.6-1.5c0-1.2,1.1-1.9,3.1-1.9v-0.1
			c0-0.4-0.1-1.2-1.2-1.2c-0.5,0-1,0.1-1.3,0.4L41,9.4c0.4-0.3,1-0.5,1.7-0.5c1.6,0,2,1.1,2,2.1v1.9c0,0.4,0,0.9,0.1,1.2H43.8z
			 M43.7,11.5c-1,0-2.2,0.2-2.2,1.2c0,0.6,0.4,0.9,0.9,0.9c0.7,0,1.1-0.4,1.2-0.9c0-0.1,0.1-0.2,0.1-0.3V11.5z"/>
		<path class="st1" d="M46.1,10.7c0-0.7,0-1.2,0-1.7h0.8l0,0.9h0c0.4-0.6,1-1,1.8-1c1.2,0,2.2,1,2.2,2.6c0,1.8-1.1,2.8-2.3,2.8
			c-0.7,0-1.3-0.3-1.6-0.8h0v2.8h-0.9V10.7z M47,12.1c0,0.1,0,0.3,0,0.4c0.2,0.6,0.7,1.1,1.4,1.1c1,0,1.6-0.8,1.6-2
			c0-1-0.5-1.9-1.5-1.9c-0.6,0-1.2,0.5-1.4,1.2c0,0.1-0.1,0.3-0.1,0.4V12.1z"/>
		<path class="st1" d="M52.1,10.7c0-0.7,0-1.2,0-1.7h0.8l0,0.9h0c0.4-0.6,1-1,1.8-1c1.2,0,2.2,1,2.2,2.6c0,1.8-1.1,2.8-2.3,2.8
			c-0.7,0-1.3-0.3-1.6-0.8h0v2.8h-0.9V10.7z M53,12.1c0,0.1,0,0.3,0,0.4c0.2,0.6,0.7,1.1,1.4,1.1c1,0,1.6-0.8,1.6-2
			c0-1-0.5-1.9-1.5-1.9c-0.6,0-1.2,0.5-1.4,1.2c0,0.1-0.1,0.3-0.1,0.4V12.1z"/>
	</g>
	<g id="_x39_NvrZd.tif">
		<g>
			<path class="st1" d="M64.8,16.6c0.2-0.6,0.3-1.1,0.4-1.6c0.1-0.4,0.2-0.8,0.3-1.2c0-0.1,0-0.1,0-0.2c-0.6-1-0.8-2.1-0.7-3.3
				c0.2-2,1.2-3.5,3-4.5C70,4.6,72.7,5,74.5,6.6c1,1,1.6,2.2,1.8,3.6c0.2,1.7-0.4,3.3-1.6,4.5c-1,1-2.1,1.6-3.5,1.7
				c-1.1,0.1-2.2-0.1-3.3-0.6c-0.1,0-0.1,0-0.2,0c-0.9,0.2-1.9,0.5-2.8,0.7C64.8,16.6,64.8,16.6,64.8,16.6z M66.1,15.2
				C66.2,15.2,66.2,15.2,66.1,15.2c0.6-0.2,1.1-0.3,1.6-0.4c0.1,0,0.2,0,0.3,0c1,0.6,2.1,0.8,3.3,0.6c2.1-0.4,3.7-2.1,3.9-4.3
				c0.1-1.5-0.4-2.7-1.4-3.7c-1.5-1.5-3.7-1.8-5.5-0.8c-1.7,0.9-2.5,2.3-2.6,4.2c0,0.9,0.3,1.8,0.8,2.6c0,0.1,0.1,0.1,0,0.2
				c-0.1,0.2-0.1,0.3-0.1,0.5C66.4,14.5,66.3,14.9,66.1,15.2z"/>
			<path class="st1" d="M72,13.7c-0.3,0-0.6-0.1-0.9-0.2c-0.7-0.3-1.3-0.6-1.8-1.1c-0.7-0.6-1.2-1.4-1.6-2.2
				c-0.2-0.5-0.3-0.9-0.1-1.4c0.1-0.3,0.3-0.5,0.5-0.7c0.2-0.2,0.5-0.2,0.8-0.1c0.1,0,0.2,0.1,0.2,0.2c0.2,0.4,0.3,0.8,0.4,1.1
				c0,0.1,0,0.2,0,0.2c0,0.1-0.1,0.1-0.1,0.2c-0.1,0.1-0.1,0.1-0.2,0.2c-0.2,0.3-0.2,0.3-0.1,0.6c0.4,0.7,1,1.2,1.7,1.6
				c0,0,0.1,0,0.1,0.1c0.1,0.1,0.3,0,0.4-0.1c0.1-0.2,0.3-0.3,0.4-0.5c0.1-0.1,0.2-0.1,0.3-0.1c0.1,0,0.2,0.1,0.3,0.1
				c0.3,0.2,0.6,0.3,0.9,0.5c0.2,0.1,0.2,0.1,0.2,0.4c-0.1,0.6-0.4,0.9-1.1,1.1C72.3,13.7,72.2,13.7,72,13.7z"/>
		</g>
	</g>
</g>
</svg>
